# xmcd
#
# Track frame offsets:
#	150
#	16122
#	37445
#	53735
#	68995
#	83570
#	99800
#	110167
#	127230
#	140997
#	156425
#	173242
#	188392
#	204122
#	221100
#
# Disc length: 3176
#
# Revision: 1
# Processed by: cddbd v1.5.2PL0 Copyright (c) Steve Scherf et al.
# Submitted via: kJams Pro (development) 1.0patch49.62
#
DISCID=d90c660f
DTITLE=Various Artist - MM6142
DYEAR=2002
DGENRE=Womens
TTITLE0=Ross, Diana - Good Morning Heartache
TTITLE1=Ronstadt, Linda - Mean To Me
TTITLE2=Ronstadt, Linda - Lover Man
TTITLE3=Horne, Lena - I Gotta Right To Sing The Blues
TTITLE4=Minelli, Liza - Maybe This Time
TTITLE5=Holiday, Billie - Ain't Nobody's Business
TTITLE6=Wilson, Nancy - I Wish You Love
TTITLE7=Streisand, Barbra - Man I Love, The
TTITLE8=Ronstadt, Linda - Am I Blue?
TTITLE9=Vaughn, Sarah - Tenderly
TTITLE10=Horne, Lena - Stormy Weather
TTITLE11=Vaughn, Sarah - My Funny Valentine
TTITLE12=Holiday, Billie - Crazy He Calls Me
TTITLE13=Ronstadt, Linda - I've Got A Crush On You
TTITLE14=Holiday, Billie - He's Funny That Way
EXTD=Label=Music Maestro 6000 Series
EXTT0=
EXTT1=
EXTT2=
EXTT3=
EXTT4=
EXTT5=
EXTT6=
EXTT7=
EXTT8=
EXTT9=
EXTT10=
EXTT11=
EXTT12=
EXTT13=
EXTT14=
PLAYORDER=
